<svg width="1440" height="274" viewBox="0 0 1440 274" fill="none" xmlns="http://www.w3.org/2000/svg">
<path fill-rule="evenodd" clip-rule="evenodd" d="M1440 57.7584L1399.92 43.3188C1359.84 28.8792 1280.04 0 1199.88 0C1120.08 0 1039.92 28.8792 960.117 64.8021C879.961 100.725 800.156 144.044 720 144.044C639.844 144.044 560.039 100.725 479.883 100.725C400.078 100.725 319.922 144.044 240.117 144.044C159.961 144.044 80.1562 100.725 40.0781 79.2416L0 57.7584V274H40.0781C80.1562 274 159.961 274 240.117 274C319.922 274 400.078 274 479.883 274C560.039 274 639.844 274 720 274C800.156 274 879.961 274 960.117 274C1039.92 274 1120.08 274 1199.88 274C1280.04 274 1359.84 274 1399.92 274H1440V57.7584Z" fill="url(#paint0_linear)"/>
<defs>
<linearGradient id="paint0_linear" x1="720" y1="0" x2="720" y2="274" gradientUnits="userSpaceOnUse">
<stop stop-color="#B1907F"/>
<stop offset="0.533814" stop-color="#B1907F"/>
</linearGradient>
</defs>
</svg>
